<svg id="Layer_1" data-name="Layer 1" xmlns="http://www.w3.org/2000/svg" width="64" height="64" viewBox="0 0 64 64"><defs><style>.cls-1{fill:#1d1d1b;}.cls-2{fill:#cbe7f5;}.cls-3{fill:#e7413e;}.cls-4{fill:#fab900;}.cls-5{fill:#85bfe9;}.cls-6{fill:#f2910d;}.cls-7{fill:#ffe19b;}.cls-8{fill:#e6e4da;}</style></defs><title>space-rocket</title><g id="space-rocket"><path class="cls-1" d="M53.94,48.87c.42-.42.63-12.79.21-14S47,29.62,47,29.62s-.37-2.87-.67-5.08S44.69,18.12,41,11s-7.46-9.46-8.29-9.42a9.74,9.74,0,0,0-5.29,2.79A39.14,39.14,0,0,0,19,17.58,34.33,34.33,0,0,0,17.07,29c-2.33,1.33-7.25,4.71-7.75,5.58s.42,14.71.46,14.92,2.79.29,5.21-1.12a26.49,26.49,0,0,0,5.21-4.71s1.54,3,1.88,3.58,1.42.83,1.42.83A18,18,0,0,0,24,49.79c.17.33,1.13.38,1.13.38s.88,3,.92,3.13a6.84,6.84,0,0,0,1.54.21,4.11,4.11,0,0,0-.79,2.13c0,1.08,1.25,1.75,2.88,2.21A3.63,3.63,0,0,1,31.94,60c.08.17.46.29.88.25s.5-.87,1.88-1.79,3.13-.46,4.42-2-.62-3.5-.62-3.5a3.64,3.64,0,0,0,1.42-.12C40.19,52.66,40,50,40,50a10.36,10.36,0,0,0,2.25-.29c.33-.21.13-2.5.13-2.5a2.55,2.55,0,0,0,1-.37,8.84,8.84,0,0,0,1-2.12A7.5,7.5,0,0,0,47,47C48.9,48.16,53.52,49.29,53.94,48.87ZM17.3,52.1c-.16,0-.41-2-.78-2s-1,1.66-1.06,1.91a11.58,11.58,0,0,0-2.16.19c-.25.16,0,.41.13.59s1.56.31,1.63.41a19.65,19.65,0,0,1-.87,1.91c-.06.19.31.31.66.38S16,54.26,16,54.26s.34,1,.44,1.28.63.16.84,0,0-1.87,0-2.09,1.34-.16,1.34-.16.28-.44.16-.75S17.46,52.13,17.3,52.1ZM9.24,55.26A10.66,10.66,0,0,0,9.65,54a.8.8,0,0,0-.47-.75c-.25-.06-.66.91-.66.91s-.44-.44-.69-.34,0,1,0,1a3.07,3.07,0,0,0-.94-.19c-.19.06-.16.28-.16.47s.81.63.81.63-1.06.44-1.25.53.5.75.63.81,1-.72,1-.72.13.84.13,1.06.31.13.56.16S9,56.44,9,56.44a5.85,5.85,0,0,0,1.34.41c.38,0,.28-.31.28-.75S9.24,55.26,9.24,55.26Zm39.94-2.44s.13-1.16.16-1.34-.16-.22-.47-.22S47.4,52.85,47.3,53s-1.57-.11-1.69,0a1,1,0,0,0-.06.81c.13.22.84.34.94.47s-.81,1.81-.81,2.09,1.25,0,1.5-.12.5-.84.5-.84.72,1,1.06,1,.59-.19.59-.44-.59-1-.47-1.12a4.53,4.53,0,0,0,.38-.59,7.92,7.92,0,0,1,1.16-.34c.38-.12.22-.53.09-.75S49.18,52.82,49.18,52.82Zm7.16-2c-2.66.41-4.41,2.31-3.87,4.78a3.21,3.21,0,0,0,3.06,2.69c.41,0,.63-.37.53-.87s-1.25-1-.78-2.91a2.81,2.81,0,0,1,2.56-2.06c.31-.12.34-.34-.09-.94S57.11,50.73,56.34,50.85ZM9.09,22s-.16,1.44.09,1.78,1.5-.78,1.5-.78,1.38.69,1.69.5-.28-1.25-.28-1.25.88-.56.94-1-1.37-.41-1.59-.41-.62-1.75-1-1.66-.45,1.63-.69,1.63c-.41,0-1.59.19-1.62.56S9.09,22,9.09,22ZM11,11.35c.09.06-.31,1.81.22,1.84s1.34-1.25,1.5-1.34,2,.78,2.38.47-.87-1.56-.87-1.56,1.16-1,.88-1.34-1.5,0-1.69.13-1.34-1.59-1.69-1.37-.25,1.5-.28,1.72-1.54.28-1.63.66S10.9,11.29,11,11.35Zm36.22-.47c.06.13-.72,1.56-.47,1.78s1.81-.84,1.94-.91S50,13.32,50.46,13s-.37-1.66-.37-1.66,1.41-.34,1.41-.72-1.56-.75-1.56-.75-.06-1.62-.37-1.66-1.22,1.28-1.31,1.34-1.91-.5-2,0S47.15,10.76,47.21,10.88ZM57.27,7.76c-.06-.16.38-2.25,0-2.44s-1.59,1.41-1.72,1.53-2.31-.71-2.44-.47c-.25.47,1.59,1.19,1.63,1.53s-1,1.59-.62,2,1.66-.56,1.88-.47,1.13,1.22,1.41,1.06-.12-1.5-.09-1.59,1.09-.19,1.09-.47S57.34,7.91,57.27,7.76ZM54.86,22.91c-.62-.12-1.21,1.71-1.58,1.79s-1.71-1-1.83-.5,1.08,1.58,1.17,1.75-1.33,1.21-1.08,1.63,1.5-.33,1.75-.29.67,2,1.13,1.75.17-1.92.42-2.08,1.25,0,1.42-.58-1.25-.83-1.37-1S55.48,23,54.86,22.91Z"/><path class="cls-2" d="M11.23,35.25c.18-.41,5.71-4.12,5.79-3.87A43.14,43.14,0,0,0,17.94,38c.71,2.42,1.33,4,1.21,4s-2.75-3-3-2.87-.71.71-.58.92,2.67,2.75,2.5,3S17,44.2,17,44.2A29.09,29.09,0,0,0,14.77,41c-.21,0-.92.75-.75,1s2.25,2.58,2,2.92a5.43,5.43,0,0,1-.62.75,18.63,18.63,0,0,0-1.92-2.21c-.17,0-.79.54-.62.83s1.79,1.71,1.42,2-2.71,1.54-2.71,1.25S11,35.83,11.23,35.25Z"/><path class="cls-2" d="M47.27,31.87a25.42,25.42,0,0,1-.58,7.54A37.44,37.44,0,0,1,45.44,43a17.48,17.48,0,0,0,3,2.71,9.57,9.57,0,0,0,3.75,1s.13-10.58,0-10.75S47.65,32.08,47.27,31.87Z"/><path class="cls-1" d="M49.61,38.83c.25.08,1.21.67,1.29,1s0,1-.17,1a5.93,5.93,0,0,1-1.58-1.08C49.07,39.41,49.61,38.83,49.61,38.83Z"/><path class="cls-1" d="M48.61,40.79c0-.3,2.54,1.67,2.58,2s0,1.08-.12,1S48.23,42,48.23,41.62,48.61,40.83,48.61,40.79Z"/><path class="cls-1" d="M47.82,42.7A14.87,14.87,0,0,1,51,45.16c0,.29.17.75-.21.75a16.65,16.65,0,0,1-3.42-2.37C47.27,43.29,47.69,42.7,47.82,42.7Z"/><path class="cls-3" d="M23.9,46.25s-3.46-6.12-4.25-10.46S18.57,26,20,21.33s3.21-8.25,3.54-8.5a15.69,15.69,0,0,1,8.88-2.17c5,.25,6.29,1.33,6.63,1.54a43.61,43.61,0,0,1,5.46,13.88,40.1,40.1,0,0,1,.13,12.25s-1.29-1.79-1.54-1.71-.67.38-.46.63a18,18,0,0,1,1.79,2.42,6.76,6.76,0,0,1-.46,1.25,28,28,0,0,0-2-2.62c-.17,0-.79.13-.67.46s2.42,3.17,2.42,3.58a6.65,6.65,0,0,1-1.33,2.58c-.37.21-3.12.71-3.29,1.08s-.29,1.25,0,1.33,2.46,0,2.46.29.08,1.17,0,1.21a49.67,49.67,0,0,1-8.87.71c-5.13,0-7.38,0-7.5-.21s-.42-1.25-.25-1.21,2.25.33,3.33.38,1.42,0,1.5-.12A6.45,6.45,0,0,0,29.48,47S24.65,46.66,23.9,46.25Z"/><path class="cls-1" d="M39.15,40.45c0-.24.63-.42.79-.33A13.1,13.1,0,0,1,42,43c0,.33-.29.79-.58.63A18.22,18.22,0,0,1,39.15,40.45Z"/><path class="cls-1" d="M37.57,41.2c.21.08,2.79,2.67,2.63,2.92s-.71.67-.83.54-2.62-2.46-2.54-2.79S37.57,41.2,37.57,41.2Z"/><path class="cls-1" d="M35.19,42.58a19.69,19.69,0,0,1,3.21,2.83c0,.21-.42.67-.67.58a18.49,18.49,0,0,1-3.21-2.67C34.57,43.08,35,42.54,35.19,42.58Z"/><path class="cls-1" d="M33.32,44.25c.21-.21,3.17,2,3.08,2.29s0,.67-.46.58a12.68,12.68,0,0,1-3.25-2C32.69,44.91,33.27,44.29,33.32,44.25Z"/><path class="cls-1" d="M22.27,19a20.76,20.76,0,0,1,.63-2.87A6.4,6.4,0,0,1,24,13.45c.17-.08,1-.29,1-.08a22.34,22.34,0,0,0-1.29,3.38c-.25,1.38-.12,1.79-.37,2A2.73,2.73,0,0,1,22.27,19Z"/><path class="cls-2" d="M24.86,10.29c.17-.38,4.79-6.75,7.33-6.88s5.67,6.79,5.33,6.83a12,12,0,0,0-6.58-.79C26.48,10,24.86,10.29,24.86,10.29Z"/><path class="cls-1" d="M27.86,8.5c-.28-.11,2.5-3.25,3-3.29s.42.38.54.75-1.21,1.21-1.75,1.88-.5.83-.79.92A2.14,2.14,0,0,1,27.86,8.5Z"/><path class="cls-1" d="M24.52,20.25c3.29-3.16,9.75-4.29,13.67-1s5.13,7.46,3.92,12.38-6.25,7.62-11.92,6.5a10.86,10.86,0,0,1-8.83-7.92A10.73,10.73,0,0,1,24.52,20.25Z"/><path class="cls-4" d="M25.26,21c3-2.85,8.77-3.86,12.3-.86a10.33,10.33,0,0,1,3.52,11.14C40,35.7,35.45,38.14,30.36,37.13A9.77,9.77,0,0,1,22.41,30,9.65,9.65,0,0,1,25.26,21Z"/><path class="cls-1" d="M27.65,23.49c1.88-1.81,5.59-2.46,7.83-.55A6.58,6.58,0,0,1,37.72,30c-.69,2.82-3.58,4.37-6.83,3.73a6.23,6.23,0,0,1-5.06-4.54A6.15,6.15,0,0,1,27.65,23.49Z"/><path class="cls-5" d="M28.9,24.79a4.35,4.35,0,0,1,5.5-.39,4.61,4.61,0,0,1,1.57,5c-.49,2-2.51,3.07-4.79,2.61a4.37,4.37,0,0,1-3.55-3.18A4.31,4.31,0,0,1,28.9,24.79Z"/><path class="cls-1" d="M31.59,18.83a1.29,1.29,0,0,1,1.6,1.67c-.33,1-1.92.92-2.29.46A1.33,1.33,0,0,1,31.59,18.83Z"/><path class="cls-6" d="M31.78,19.51a.55.55,0,0,1,.69.71c-.14.41-.82.39-1,.2A.57.57,0,0,1,31.78,19.51Z"/><path class="cls-1" d="M36.82,20.91a1.29,1.29,0,0,1,1.6,1.67c-.33,1-1.92.92-2.29.46A1.33,1.33,0,0,1,36.82,20.91Z"/><path class="cls-6" d="M37,21.59a.55.55,0,0,1,.69.71c-.14.41-.82.39-1,.2A.57.57,0,0,1,37,21.59Z"/><path class="cls-1" d="M39.48,26.16a1.29,1.29,0,0,1,1.6,1.67c-.33,1-1.92.92-2.29.46A1.33,1.33,0,0,1,39.48,26.16Z"/><path class="cls-6" d="M39.68,26.84a.55.55,0,0,1,.69.71c-.14.41-.82.39-1,.2A.57.57,0,0,1,39.68,26.84Z"/><path class="cls-1" d="M38.11,31.7a1.29,1.29,0,0,1,1.6,1.67c-.33,1-1.92.92-2.29.46A1.33,1.33,0,0,1,38.11,31.7Z"/><path class="cls-6" d="M38.31,32.38a.55.55,0,0,1,.69.71c-.14.41-.82.39-1,.2A.57.57,0,0,1,38.31,32.38Z"/><path class="cls-1" d="M33.4,34.43A1.29,1.29,0,0,1,35,36.1c-.33,1-1.92.92-2.29.46A1.33,1.33,0,0,1,33.4,34.43Z"/><path class="cls-6" d="M33.6,35.11a.55.55,0,0,1,.69.71c-.14.41-.82.39-1,.2A.57.57,0,0,1,33.6,35.11Z"/><path class="cls-1" d="M28.23,33.58a1.29,1.29,0,0,1,1.6,1.67c-.33,1-1.92.92-2.29.46A1.33,1.33,0,0,1,28.23,33.58Z"/><path class="cls-6" d="M28.43,34.26a.55.55,0,0,1,.69.71c-.14.41-.82.39-1,.2A.57.57,0,0,1,28.43,34.26Z"/><path class="cls-1" d="M24.63,30.27a1.29,1.29,0,0,1,1.6,1.67c-.33,1-1.92.92-2.29.46A1.33,1.33,0,0,1,24.63,30.27Z"/><path class="cls-6" d="M24.83,30.94a.55.55,0,0,1,.69.71c-.14.41-.82.39-1,.2A.57.57,0,0,1,24.83,30.94Z"/><path class="cls-1" d="M23.67,25.7a1.29,1.29,0,0,1,1.6,1.67c-.33,1-1.92.92-2.29.46A1.33,1.33,0,0,1,23.67,25.7Z"/><path class="cls-6" d="M23.87,26.38a.55.55,0,0,1,.69.71c-.14.41-.82.39-1,.2A.57.57,0,0,1,23.87,26.38Z"/><path class="cls-1" d="M26.19,20.89a1.29,1.29,0,0,1,1.6,1.67c-.33,1-1.92.92-2.29.46A1.33,1.33,0,0,1,26.19,20.89Z"/><path class="cls-6" d="M26.39,21.57a.55.55,0,0,1,.69.71c-.14.41-.82.39-1,.2A.57.57,0,0,1,26.39,21.57Z"/><path class="cls-6" d="M26.37,50.47c0-.25,3.13.13,6.81,0s5.72-.37,5.78-.25a18.8,18.8,0,0,1-.06,1.94s-1.22-.53-6-.16-5.84.59-6,.47A10.31,10.31,0,0,1,26.37,50.47Z"/><path class="cls-7" d="M28.52,53.41c.12-.06,1.84-.12,1.84-.12a1.53,1.53,0,0,0,.53,1.66c.88.75,1.59.66,1.75,1s.09.69.38.75a.57.57,0,0,0,.63-.19c.16-.19.31-1,.81-1s1.66.31,2.06-.41a3.13,3.13,0,0,0,.22-1.78,4.6,4.6,0,0,1,.88,0c.28.06,1.38,1.59.59,2.5S35,56.94,33.74,57.91A8.69,8.69,0,0,0,32.49,59a3.68,3.68,0,0,0-2.31-2c-1.87-.69-2.25-.87-2.28-1.41S28,53.69,28.52,53.41Z"/><path class="cls-4" d="M31.37,53.22a23.5,23.5,0,0,1,4-.25c.28.13.59.91.25,1.13s-1.53.41-1.87.75-.31.5-.47.44a5,5,0,0,1-1.38-.81C31.43,54,31.24,53.32,31.37,53.22Z"/><path class="cls-8" d="M55.93,51.6c.24-.09.5.19.22.44a4.25,4.25,0,0,0-2,2.38c-.31,1.44.56,2.38.34,2.56s-1.47-.78-1.22-2.47A3.91,3.91,0,0,1,55.93,51.6Z"/></g></svg>